<svg width="22" height="20" viewBox="0 0 11 10" fill="none" xmlns="http://www.w3.org/2000/svg">
<path d="M5 0C6.78672 0 8.35311 0.938069 9.2373 2.34766L8.50781 3.07715C7.8278 1.83926 6.5121 1 5 1C2.79086 1 1 2.79086 1 5C1 7.20914 2.79086 9 5 9C7.20914 9 9 7.20914 9 5C9 4.69099 8.96378 4.39044 8.89746 4.10156L9.70117 3.29785C9.89363 3.82929 10 4.40213 10 5C10 7.76142 7.76142 10 5 10C2.23858 10 0 7.76142 0 5C0 2.23858 2.23858 0 5 0Z" fill="white"/>
<line x1="3.35355" y1="4.64645" x2="5.35355" y2="6.64645" stroke="white"/>
<line x1="4.64645" y1="6.64645" x2="10.6464" y2="0.646446" stroke="white"/>
</svg>
